<svg xmlns="http://www.w3.org/2000/svg" viewBox="0 0 560 260"><defs><linearGradient id="g" x1="0" x2="1"><stop offset="0" stop-color="#252a32"/><stop offset="1" stop-color="#090b0f"/></linearGradient><filter id="s" x="-20%" y="-20%" width="140%" height="160%"><feDropShadow dx="0" dy="18" stdDeviation="16" flood-color="#0f172a" flood-opacity=".28"/></filter></defs><rect width="560" height="260" fill="none"/><ellipse cx="286" cy="218" rx="205" ry="24" fill="#0f172a" opacity=".18"/><g filter="url(#s)"><path d="M58 165c18-40 57-62 121-70l52-45h152c48 10 83 40 107 88l31 9c19 6 28 20 24 43l-6 28H47l6-34c1-8 3-14 5-19Z" fill="url(#g)"/><path d="M222 91h83l-18 45H164l58-45Zm101 0h65c33 9 58 27 76 54H307l16-54Z" fill="#dbeafe" opacity=".23"/><path d="M78 173h86" stroke="#ff5a00" stroke-width="8" stroke-linecap="round"/><path d="M450 172h73" stroke="#ff5a00" stroke-width="8" stroke-linecap="round"/><circle cx="160" cy="210" r="38" fill="#0b0f14"/><circle cx="160" cy="210" r="20" fill="#94a3b8"/><circle cx="429" cy="210" r="38" fill="#0b0f14"/><circle cx="429" cy="210" r="20" fill="#94a3b8"/><path d="M73 163c112 12 256 12 425-8" stroke="#64748b" stroke-width="5" opacity=".8"/><path d="M294 137v76" stroke="#334155" stroke-width="4" opacity=".9"/></g></svg>
